<?xml version="1.0" standalone="no"?>
<!DOCTYPE svg PUBLIC "-//W3C//DTD SVG 20010904//EN"
 "http://www.w3.org/TR/2001/REC-SVG-20010904/DTD/svg10.dtd">
<svg version="1.0" xmlns="http://www.w3.org/2000/svg"
 width="399.000000pt" height="399.000000pt" viewBox="0 0 399.000000 399.000000"
 preserveAspectRatio="xMidYMid meet">
<metadata>
Created by potrace 1.11, written by Peter Selinger 2001-2013
</metadata>
<g transform="translate(0.000000,399.000000) scale(0.100000,-0.100000)"
fill="#000000" stroke="none">
<path d="M1280 1970 l0 -1510 188 2 187 3 3 682 2 683 580 0 580 0 0 159 c0
136 -2 160 -16 165 -9 3 -270 6 -580 6 l-564 0 0 495 0 495 619 0 619 0 10 43
c16 66 62 250 68 270 5 16 -40 17 -845 17 l-851 0 0 -1510z"/>
</g>
</svg>
